<svg width="1037" height="1115" viewBox="0 0 1037 1115" fill="none" xmlns="http://www.w3.org/2000/svg">
<path d="M292.457 95.5381C294.7 98.9021 295.183 100.197 295.748 104.017C295.908 105.051 296.069 106.086 296.234 107.151C296.406 108.293 296.577 109.435 296.754 110.612C302.702 160.351 302.702 160.351 322.752 205.057C323.259 205.759 323.767 206.46 324.29 207.183C329.418 213.702 336.079 218.602 342.56 223.699C343.839 224.744 343.839 224.744 345.145 225.811C352.136 231.445 359.627 236.239 367.23 240.991C369.377 242.352 371.494 243.752 373.61 245.162C374.96 246.043 376.31 246.923 377.66 247.802C378.865 248.599 380.069 249.397 381.311 250.219C384.315 251.972 384.315 251.972 386.913 251.065C389.722 248.904 392.23 246.557 394.774 244.088C409.694 230.143 439.064 208.553 460.242 208.553C460.146 207.543 460.049 206.534 459.95 205.494C460.32 200.509 461.735 198.406 464.902 194.572C471.035 189.911 471.035 189.911 474.224 189.911C480.799 267.395 482.685 345.2 482.38 422.931C470.151 423.438 458.696 421.914 446.697 419.873C445.288 419.639 445.288 419.639 443.852 419.4C427.707 416.72 411.747 413.483 395.824 409.688C393.116 409.056 390.408 408.473 387.683 407.926C374.04 405.062 360.961 400.481 347.784 395.999C346.965 395.72 346.146 395.442 345.303 395.155C343.049 394.386 340.797 393.613 338.545 392.84C334.467 391.494 330.384 390.293 326.247 389.143C343.854 397.427 361.513 405.353 379.587 412.564C383.194 414.022 386.764 415.556 390.332 417.105C390.332 417.49 390.332 417.874 390.332 418.271C386.871 418.271 383.41 418.271 379.845 418.271C381.864 429.374 385.881 436.043 394.992 442.738C398.237 444.525 401.58 445.87 405.042 447.18C406.518 447.755 406.518 447.755 408.024 448.342C424.333 454.53 441.171 459.339 457.898 464.256C485.061 472.311 485.061 472.311 492.866 484.681C495.772 490.666 497.362 496.461 498.692 502.959C499.092 504.811 499.492 506.664 499.894 508.516C500.578 511.716 501.257 514.917 501.933 518.119C502.209 519.34 502.486 520.561 502.77 521.819C502.999 522.873 503.227 523.927 503.462 525.014C505.034 529.146 507.575 531.649 511.509 533.615C514.753 533.792 517.949 533.885 521.195 533.907C522.08 533.931 522.965 533.955 523.878 533.98C529.25 534.017 532.859 533.709 537.143 530.12C541.509 524.897 541.879 518.43 542.896 511.915C545.285 497.897 547.666 484.103 559.254 474.646C569.355 467.93 581.511 465.01 592.997 461.498C602.074 458.717 611.136 455.89 620.16 452.939C621.67 452.447 623.182 451.962 624.696 451.482C644.252 445.297 644.252 445.297 658.32 431.087C659.543 427.629 660.404 424.266 660.651 420.601C660.266 419.832 659.882 419.063 659.485 418.271C660.351 417.79 661.216 417.309 662.107 416.814C665.301 414.992 665.301 414.992 667.218 412.598C671.04 409.151 675.219 407.556 679.949 405.623C680.914 405.218 681.879 404.814 682.873 404.397C684.908 403.547 686.945 402.702 688.984 401.863C692.104 400.578 695.216 399.278 698.327 397.975C700.308 397.149 702.29 396.325 704.272 395.501C705.201 395.114 706.131 394.727 707.089 394.328C707.96 393.97 708.831 393.612 709.729 393.243C710.491 392.928 711.253 392.614 712.038 392.29C714.304 391.453 716.557 390.85 718.909 390.308C718.909 389.539 718.909 388.77 718.909 387.978C710.798 390.298 702.917 393.02 695.023 395.988C684.61 399.827 674.201 403.147 663.451 405.898C660.456 406.67 657.47 407.475 654.483 408.281C624.709 416.167 591.374 424.096 560.446 424.096C560.069 382.325 561.019 340.66 562.618 298.92C562.768 294.996 562.914 291.073 563.059 287.149C565.615 218.775 565.615 218.775 569.767 191.076C574.808 191.931 576.863 194.242 580.026 198.08C582.133 201.584 581.904 204.59 581.419 208.553C582.059 208.672 582.698 208.791 583.357 208.914C589.994 210.255 595.884 212.289 602.028 215.106C602.937 215.52 603.847 215.933 604.783 216.359C621.044 223.876 636.853 233.206 649.992 245.53C650.687 246.181 651.382 246.831 652.098 247.502C652.708 248.102 653.318 248.703 653.947 249.322C655.992 250.742 655.992 250.742 658.716 250.367C662.502 249.102 665.372 247.299 668.693 245.08C669.339 244.651 669.986 244.222 670.652 243.779C672.739 242.388 674.815 240.982 676.89 239.573C677.597 239.098 678.304 238.622 679.033 238.132C689.581 231.036 699.845 223.719 709.588 215.543C710.495 214.825 711.402 214.108 712.337 213.368C731.643 197.619 734.669 172.107 739.882 149.133C740.109 148.147 740.336 147.161 740.57 146.145C744.309 129.805 746.788 113.284 749.203 96.7032C761.179 99.3989 768.765 112.394 775.025 122.104C785.076 138.202 791.942 154.824 793.99 173.745C794.93 182.259 795.971 187.164 802.574 193.061C806.029 196.675 807.984 200.659 810.156 205.13C810.535 205.901 810.914 206.672 811.304 207.466C820.415 226.522 824.572 250.872 817.948 271.468C813.064 280.902 803.663 287.529 795.61 294.171C792.913 296.405 790.248 298.675 787.583 300.947C782.343 305.411 777.054 309.806 771.706 314.14C766.583 318.306 761.68 322.663 756.804 327.115C753.813 329.768 750.731 332.259 747.601 334.748C729.869 348.627 729.869 348.627 720.798 368.199C720.907 371.766 720.907 371.766 723.41 373.979C724.352 374.657 725.294 375.336 726.264 376.036C732.277 381.05 733.97 385.02 735.221 392.638C735.456 394.049 735.69 395.459 735.931 396.912C740.454 426.933 740.454 426.933 732.236 439.752C731.407 440.653 731.407 440.653 730.561 441.573C729.792 441.573 729.023 441.573 728.23 441.573C729.118 443.348 730.006 445.124 730.895 446.9C731.705 448.52 732.514 450.141 733.322 451.762C735.84 456.81 738.38 461.847 740.943 466.873C741.515 468.002 742.088 469.131 742.678 470.294C743.805 472.519 744.939 474.74 746.078 476.958C755.201 495.008 753.765 510.276 747.69 528.915C746.199 533.241 744.434 537.427 742.608 541.621C735.273 558.749 732.054 569.506 738.877 587.432C742.313 595.992 746.348 604.282 750.416 612.556C754.925 621.747 759.249 630.959 761.656 640.95C761.925 642.035 762.194 643.119 762.471 644.236C764.444 654.062 764.564 663.645 764.569 673.646C764.583 675.088 764.598 676.531 764.612 678.017C764.656 705.761 756.865 736.949 742.212 760.81C741.443 761.194 740.674 761.579 739.882 761.975C739.711 760.479 739.54 758.983 739.363 757.442C737.508 742.447 734.152 728.536 729.396 714.206C728.637 719.181 727.887 724.157 727.138 729.134C726.926 730.527 726.713 731.92 726.494 733.355C724.218 748.544 723.313 763.467 723.014 778.816C722.72 793.286 721.193 806.582 716.506 820.303C716.152 821.344 715.798 822.386 715.433 823.459C709.212 841.232 700.958 857.504 689.78 872.659C688.984 873.739 688.188 874.819 687.368 875.932C676.229 890.182 661.06 908.01 644.338 915.768C644.859 914.82 645.381 913.873 645.918 912.896C654.057 897.469 659.15 882.062 659.485 864.504C658.625 865.758 657.764 867.012 656.877 868.304C649.335 879.201 641.51 889.57 632.687 899.457C632.147 900.068 631.607 900.68 631.05 901.311C618.987 914.933 605.836 927.385 591.655 938.788C561.557 963.017 538.705 989.193 521.996 1024.12C518.042 1020.9 516.326 1016.47 514.203 1011.96C510.064 1003.47 505.427 995.658 499.857 988.004C498.967 986.767 498.076 985.529 497.158 984.254C485.641 968.721 471.599 954.634 456.391 942.706C428.629 920.86 403.29 895.773 384.506 865.669C383.243 883.036 389.968 899.254 397.323 914.603C362.976 898.913 340.301 857.382 327.257 824.237C325.688 819.819 324.647 815.349 323.698 810.763C323.411 809.459 323.411 809.459 323.118 808.128C321.269 799.518 320.326 791.001 319.962 782.205C319.884 780.496 319.806 778.788 319.727 777.079C319.686 776.194 319.645 775.309 319.604 774.398C318.668 754.501 316.587 735.046 313.43 715.371C306.701 731.553 303.409 746.822 302.944 764.305C285.837 750.208 280.883 713.868 278.475 693.234C278.369 692.365 278.262 691.497 278.153 690.602C274.331 658.284 282.592 629.772 297.119 601.229C300.022 595.492 302.736 589.695 305.274 583.787C305.627 583.003 305.98 582.218 306.344 581.41C310.32 571.917 309.251 563.594 305.579 554.2C305.251 553.317 304.923 552.434 304.585 551.525C303.544 548.728 302.481 545.941 301.415 543.155C286.312 503.264 286.312 503.264 293.623 483.516C295.956 478.355 298.522 473.327 301.123 468.297C303.69 463.282 306.241 458.258 308.77 453.224C309.297 452.196 309.824 451.169 310.368 450.111C310.815 449.193 311.263 448.275 311.724 447.33C312.31 446.155 312.31 446.155 312.907 444.957C313.667 442.664 313.667 442.664 312.486 440.271C311.093 437.997 311.093 437.997 309.279 435.674C302.595 426.665 305.636 407.07 307.058 396.47C308.943 386.21 311.652 379.062 320.421 372.832C321.19 372.447 321.959 372.063 322.752 371.667C323.486 362.966 317.333 356.471 312.17 349.971C306.815 343.787 300.985 338.614 294.578 333.546C291.224 330.833 288.053 327.988 284.884 325.063C279.795 320.384 274.55 315.982 269.172 311.641C264.251 307.594 259.462 303.401 254.666 299.207C250.252 295.361 245.772 291.642 241.19 287.998C231.313 279.9 226.17 273.689 223.712 260.982C223.264 256.356 223.21 251.792 223.275 247.147C223.289 245.916 223.303 244.685 223.316 243.417C223.751 222.697 230.896 201.37 245.851 186.416C246.281 183.808 246.603 181.181 246.87 178.551C250.467 148.26 266.234 116.039 290.532 96.8761C291.167 96.4346 291.803 95.993 292.457 95.5381Z" fill="#0D1B3A"/>
<path d="M664.146 568.568C664.531 569.337 664.915 570.106 665.311 570.899C664.405 573.293 663.448 575.668 662.471 578.035C659.438 586.232 658.902 594.022 658.903 602.72C658.896 603.887 658.89 605.053 658.883 606.255C659.01 614.006 660.36 620.699 662.981 627.988C663.25 627 663.519 626.012 663.796 624.994C672.433 593.928 672.433 593.928 680.459 583.715C681.228 583.715 681.997 583.715 682.789 583.715C683.131 584.749 683.474 585.784 683.827 586.85C690.586 606.4 700.851 624.491 711.23 642.325C714.248 647.555 714.248 647.555 714.248 650.125C710.478 648.51 706.654 647.326 702.597 646.63C707.843 654.134 713.083 662.818 713.083 672.262C706.002 672.262 694.134 655.081 689.052 651.8C684.846 649.055 684.846 649.055 680.459 646.63C682.316 652.119 685.345 656.476 688.615 661.194C694.745 670.039 697.902 676.437 696.771 687.408C694.871 697.449 692.204 706.764 687.691 715.967C678.608 734.69 668.984 752.876 659.313 771.341C647.619 793.572 627.505 808.564 611.399 827.26C608.22 830.873 597.411 845.862 590.741 845.862C590.724 844.686 590.708 843.51 590.69 842.298C590.38 831.219 589.004 820.611 586.808 809.744C586.565 808.536 586.321 807.328 586.07 806.083C584.249 797.417 581.888 789.013 579.089 780.616C578.32 780.616 577.551 780.616 576.759 780.616C576.454 781.612 576.15 782.608 575.836 783.635C574.38 787.742 572.583 791.39 570.541 795.239C569.774 796.708 569.008 798.178 568.243 799.649C567.848 800.407 567.453 801.165 567.047 801.946C560.251 815.052 554.222 827.564 552.29 842.367C551.905 842.367 551.521 842.367 551.125 842.367C550.74 838.906 550.356 835.446 549.96 831.881C544.527 842.745 536.3 854.317 528.987 864.504C528.389 865.343 527.791 866.183 527.175 867.048C525.841 868.921 524.501 870.791 523.161 872.659C515.472 869.655 511.972 860.968 508.634 853.884C507.069 850.191 505.594 846.475 504.154 842.731C503.655 841.477 503.155 840.224 502.641 838.933C500.064 832.37 497.87 825.953 496.362 819.065C496.233 819.9 496.104 820.734 495.971 821.595C495.383 825.365 494.78 829.132 494.177 832.9C493.974 834.214 493.772 835.529 493.563 836.883C493.36 838.137 493.157 839.391 492.948 840.683C492.765 841.842 492.582 843.001 492.394 844.196C491.701 847.027 491.701 847.027 489.371 849.357C487.833 849.357 486.295 849.357 484.71 849.357C476.007 834.34 467.914 819.304 462.253 802.84C461.454 800.395 461.454 800.395 460.242 798.093C454.127 814.212 453.902 831.162 453.251 848.192C445.284 844.369 440.005 837.281 434.317 830.679C432.35 828.467 430.311 826.381 428.2 824.308C425.483 821.639 422.945 818.908 420.48 816.006C417.364 812.373 414.068 809.015 410.64 805.681C395.005 790.438 383.603 771.676 372.553 753.006C359.501 730.65 344.195 701.171 347.22 674.592C349.925 665.849 356.055 658.306 361.33 650.926C363.497 648.011 363.497 648.011 364.698 645.465C352.343 651.862 342.99 658.802 334.403 669.932C333.634 669.548 332.865 669.163 332.073 668.767C335.42 657.599 339.166 649.478 347.22 640.805C346.373 641.374 346.373 641.374 345.509 641.956C340.02 645.534 334.782 648.021 328.578 650.125C335.533 626.558 353.41 607.88 360.037 583.715C370.108 592.579 376.976 615.8 379.845 627.988C387.073 617.148 385.19 601.778 382.834 589.654C381.879 584.946 380.882 580.249 379.845 575.559C385.241 575.559 386.735 574.854 393.39 582.695C400.195 590.673 405.904 599.392 411.226 608.414C414.756 614.368 419.244 619.928 420.626 626.823C420.018 627.277 419.409 627.73 418.783 628.198C409.821 635.009 401.939 643.043 393.099 649.98C379.392 661.714 371.776 678.385 368.943 695.872C367.846 701.679 364.165 707.215 357.707 707.215C358.476 708.321 359.245 709.426 360.037 710.565C372.112 729.431 396.939 731.588 419.461 729.352C419.275 730.854 419.088 732.356 418.896 733.903C417.061 750.567 418.236 766.611 421.791 782.947C423.787 782.947 423.511 780.407 423.894 778.655C425.012 773.68 425.322 764.287 429.947 761.975C433.25 777.416 437.705 792.472 442.764 807.414C443.114 778.777 441.128 756.483 461.339 734.968C469.004 728.191 503.162 709.025 512.601 706.705C523.997 704.82 533.183 707.343 543.26 712.677C547.659 714.976 550.731 716.111 555.785 715.371C556.939 714.986 558.093 714.602 559.281 714.206C574.314 716.702 588.01 726.001 597.436 737.703C603.438 746.76 606.22 757.505 609.383 767.8C609.768 767.8 610.152 767.8 610.548 767.8C610.933 765.878 611.317 763.956 611.714 761.975C613.486 765.306 614.731 768.551 615.792 772.169C616.068 773.101 616.344 774.032 616.629 774.991C617.786 779.179 618.829 783.389 619.87 787.607C623.497 767.899 625.101 748.115 622.2 728.187C622.833 728.348 623.466 728.51 624.118 728.676C638.869 732.227 653.721 732.588 667.523 725.752C675.934 720.572 682.18 715.118 686.284 706.05C684.374 705.834 684.374 705.834 682.425 705.613C678.128 704.885 678.128 704.885 674.633 702.555C673.705 699.927 673.705 699.927 673.008 696.661C672.74 695.472 672.473 694.283 672.197 693.058C671.919 691.795 671.642 690.531 671.356 689.229C665.459 664.428 651.031 647.019 630.939 631.575C630.074 630.896 629.209 630.217 628.317 629.518C627.173 628.682 627.173 628.682 626.005 627.829C624.53 625.658 624.53 625.658 624.562 621.881C625.876 616.805 627.865 613.181 630.72 608.837C631.233 608.04 631.746 607.242 632.274 606.42C651.457 577.027 651.457 577.027 664.146 568.568Z" fill="#394C6D"/>
<path d="M503.457 185.055C504.557 185.051 505.656 185.047 506.788 185.043C509.106 185.038 511.424 185.035 513.742 185.035C517.216 185.032 520.69 185.011 524.164 184.989C534.808 184.957 545.346 185.139 555.936 186.284C556.784 186.375 557.632 186.465 558.505 186.558C562.975 187.107 566.842 188.016 570.933 189.911C570.81 191.06 570.687 192.209 570.56 193.393C567.484 222.691 565.583 252.016 564.379 281.444C564.326 282.738 564.326 282.738 564.272 284.057C562.378 330.717 561.408 377.409 560.446 424.096C591.041 419.767 621.314 415.258 651.329 407.785C653.227 407.328 655.125 406.871 657.023 406.415C674.766 402.044 693.003 396.833 709.72 389.421C713.103 387.97 715.275 387.648 718.909 387.978C718.909 388.747 718.909 389.516 718.909 390.308C714.517 392.253 710.123 394.194 705.728 396.134C704.413 396.716 703.097 397.298 701.742 397.898C695.564 400.622 689.382 403.315 683.121 405.846C682.123 406.252 681.126 406.657 680.098 407.075C678.253 407.819 676.404 408.551 674.549 409.268C671.877 410.35 661.816 417.343 661.816 420.601C660.924 429.367 657.794 434.531 651.329 440.408C642.25 447.263 631.631 450.545 620.97 454.077C618.079 455.034 615.195 456.01 612.312 456.99C602.328 460.361 592.308 463.549 582.169 466.425C569.282 470.104 557.822 473.815 550.979 485.992C546.828 494.761 545.229 503.971 543.474 513.44C542.951 516.232 542.421 519.021 541.853 521.805C541.689 522.633 541.524 523.461 541.354 524.314C540.097 528.374 537.835 530.667 534.812 533.616C530.403 535.085 526.228 535.086 521.631 535.145C520.761 535.179 519.891 535.212 518.994 535.247C512.88 535.317 509.153 534.467 504.518 530.12C501.251 524.28 500.311 517.723 499.348 511.187C497.192 498.098 494.629 484.727 483.763 475.993C474.824 470.028 464.413 466.895 454.124 464.146C444.201 461.391 434.377 458.361 424.595 455.142C422.364 454.41 420.13 453.688 417.896 452.966C389.476 443.525 389.476 443.525 382.075 431.333C379.961 426.931 379.492 423.098 379.845 418.271C382.536 417.886 385.228 417.502 388.001 417.106C386.834 416.625 385.667 416.144 384.465 415.649C380.031 413.821 375.599 411.987 371.168 410.151C369.27 409.365 367.37 408.581 365.471 407.799C355.175 403.559 344.938 399.217 334.836 394.532C333.987 394.143 333.138 393.754 332.263 393.353C326.386 390.587 326.386 390.587 325.082 387.978C329.783 388.653 333.987 389.681 338.431 391.346C339.634 391.789 340.836 392.232 342.075 392.689C344.533 393.607 346.991 394.527 349.448 395.447C366.348 401.673 383.51 406.291 401.109 410.042C402.016 410.237 402.923 410.433 403.857 410.634C418.317 413.734 432.829 416.408 447.425 418.78C448.317 418.927 449.208 419.073 450.127 419.224C452.696 419.641 455.267 420.048 457.838 420.451C459.291 420.678 460.743 420.906 462.24 421.14C468.918 422.069 475.656 422.461 482.38 422.931C481.038 348.309 481.038 348.309 478.375 273.726C478.32 272.521 478.32 272.521 478.265 271.292C477.01 243.744 475.314 216.231 473.058 188.746C483.115 185.537 492.955 185.068 503.457 185.055Z" fill="#2BBBDF"/>
<path d="M676.963 459.049C677.019 464.888 677.031 470.723 676.986 476.562C676.948 481.608 677.003 486.64 677.137 491.685C677.877 522.815 677.877 522.815 669.535 531.577C667.66 533.363 665.748 535.036 663.735 536.665C660.549 539.339 657.875 542.456 655.116 545.558C654.055 546.709 652.993 547.859 651.93 549.008C648.486 552.826 645.256 556.76 642.094 560.813C640.353 563.044 638.579 565.25 636.787 567.44C628.834 577.214 621.958 587.52 615.177 598.133C611.469 603.935 607.595 609.594 603.557 615.173C599.797 613.084 596.112 610.989 592.538 608.592C578.195 598.974 563.809 593.521 546.464 596.531C541.719 597.914 537.187 599.715 532.702 601.784C525.303 605.162 519.877 605.99 511.937 603.198C510.594 602.56 509.251 601.922 507.868 601.264C494.638 595.033 481.499 594.891 467.679 599.553C458.26 603.468 449.434 608.624 441.599 615.173C436.567 613.418 434.449 609.67 431.713 605.379C431.225 604.634 430.736 603.889 430.233 603.121C428.671 600.737 427.123 598.344 425.578 595.948C418.904 585.655 412.213 575.653 404.313 566.238C403.418 565.127 402.523 564.016 401.601 562.871C397.951 558.39 394.281 553.932 390.504 549.558C389.92 548.882 389.337 548.206 388.735 547.509C387.63 546.234 386.522 544.962 385.41 543.693C384.262 542.369 383.141 541.021 382.041 539.657C379.767 536.928 379.767 536.928 376.572 534.055C367.983 525.489 365.893 518.028 365.776 505.954C365.815 500.459 366.01 494.978 366.227 489.488C366.291 486.643 366.35 483.799 366.402 480.954C366.542 474.038 366.756 467.127 367.028 460.214C371.578 460.932 375.621 461.825 379.918 463.491C384.543 465.237 389.183 466.807 393.913 468.243C395.9 468.848 395.9 468.848 397.927 469.466C399.266 469.873 400.604 470.281 401.983 470.7C404.453 471.462 406.923 472.225 409.393 472.99C411.875 473.756 414.357 474.522 416.839 475.288C418.816 475.898 418.816 475.898 420.833 476.521C427.36 478.53 433.892 480.51 440.457 482.395C448.018 484.57 455.541 486.864 463.009 489.342C463.848 489.604 464.688 489.866 465.553 490.137C470.968 491.987 472.896 493.594 475.389 498.663C476.233 501.532 476.961 504.321 477.605 507.233C477.892 508.459 477.892 508.459 478.184 509.71C478.791 512.312 479.385 514.917 479.977 517.523C483.139 535.979 483.139 535.979 492.211 551.529C508.533 558.974 524.735 560.818 541.803 554.587C542.778 554.236 543.753 553.885 544.757 553.522C550.4 551.266 553.644 549.407 556.95 544.102C558.452 539.558 559.487 534.936 560.519 530.266C560.971 528.316 560.971 528.316 561.433 526.326C562.729 520.681 563.964 515.034 565.002 509.335C565.148 508.537 565.295 507.738 565.445 506.916C565.807 504.865 566.136 502.808 566.463 500.752C567.685 496.669 568.647 495.369 572.098 492.837C579.854 489.122 588.153 486.65 596.348 484.099C597.391 483.77 598.434 483.441 599.509 483.102C603.888 481.725 608.27 480.359 612.663 479.026C620.771 476.561 628.834 473.975 636.887 471.337C637.981 470.979 639.075 470.621 640.202 470.252C644.763 468.758 649.324 467.262 653.883 465.762C657.247 464.656 660.612 463.555 663.978 462.454C665.014 462.111 666.05 461.769 667.118 461.417C668.072 461.105 669.026 460.794 670.009 460.473C671.268 460.059 671.268 460.059 672.552 459.637C674.633 459.049 674.633 459.049 676.963 459.049Z" fill="#E47A4A"/>
<path d="M292.457 95.5381C294.7 98.9021 295.183 100.197 295.748 104.017C295.908 105.051 296.069 106.086 296.234 107.151C296.406 108.293 296.577 109.435 296.754 110.612C302.702 160.351 302.702 160.351 322.752 205.057C323.259 205.759 323.767 206.46 324.29 207.183C329.418 213.702 336.079 218.602 342.56 223.699C343.839 224.744 343.839 224.744 345.145 225.811C357.349 235.646 371.145 243.516 384.506 251.661C382.485 256.508 379.079 260.259 375.767 264.259C351.133 294.6 335.209 329.42 325.082 367.006C321.948 364.026 319.491 361.138 317.217 357.467C310.96 347.933 303.529 340.653 294.619 333.587C291.254 330.857 288.067 328.001 284.884 325.063C279.795 320.384 274.55 315.982 269.172 311.641C264.251 307.594 259.462 303.401 254.666 299.207C250.252 295.361 245.772 291.642 241.19 287.998C231.313 279.9 226.17 273.689 223.712 260.982C223.264 256.356 223.21 251.792 223.275 247.147C223.289 245.916 223.303 244.685 223.316 243.417C223.751 222.697 230.896 201.37 245.851 186.416C246.281 183.808 246.603 181.181 246.87 178.551C250.467 148.26 266.234 116.039 290.532 96.8761C291.167 96.4346 291.803 95.993 292.457 95.5381Z" fill="#12518B"/>
<path d="M749.203 96.7031C761.179 99.3989 768.765 112.394 775.025 122.104C785.076 138.202 791.942 154.824 793.99 173.745C794.93 182.259 795.97 187.164 802.574 193.06C806.029 196.675 807.984 200.659 810.156 205.13C810.535 205.901 810.914 206.672 811.304 207.466C820.415 226.522 824.572 250.872 817.948 271.468C813.064 280.902 803.663 287.529 795.61 294.171C792.913 296.404 790.248 298.675 787.583 300.947C782.343 305.411 777.054 309.806 771.706 314.14C766.582 318.306 761.68 322.663 756.804 327.115C753.813 329.768 750.731 332.259 747.601 334.747C737.129 343.271 726.848 352.146 721.239 364.676C720.467 366.232 719.691 367.786 718.909 369.336C718.583 368.163 718.257 366.99 717.921 365.782C708.261 331.631 694.954 297.959 672.302 270.303C671.344 269.121 670.386 267.939 669.398 266.721C667.658 264.584 665.911 262.452 664.155 260.327C661.794 257.46 659.469 254.566 657.155 251.661C658.2 251.053 664.234 247.628 665.311 247.001C682.674 236.801 693.969 228.249 709.588 215.543C710.511 214.815 711.435 214.086 712.387 213.336C731.642 197.556 734.67 172.1 739.882 149.133C740.109 148.147 740.336 147.161 740.57 146.145C744.309 129.805 746.788 113.284 749.203 96.7031Z" fill="#12518B"/>
<path d="M503.457 185.055C504.557 185.051 505.656 185.047 506.788 185.043C509.106 185.038 511.424 185.035 513.742 185.035C517.216 185.032 520.69 185.011 524.164 184.989C534.808 184.957 545.346 185.139 555.936 186.284C556.784 186.375 557.632 186.465 558.505 186.558C562.975 187.107 566.842 188.016 570.933 189.911C570.81 191.06 570.687 192.209 570.56 193.393C567.484 222.691 565.583 252.016 564.379 281.444C564.326 282.738 564.326 282.738 564.272 284.057C562.378 330.717 561.408 377.409 560.446 424.096C591.041 419.767 621.314 415.258 651.329 407.785C653.227 407.328 655.125 406.871 657.023 406.415C674.766 402.044 693.003 396.833 709.72 389.421C713.103 387.97 715.275 387.648 718.909 387.978C718.909 388.747 718.909 389.516 718.909 390.308C681.43 407.078 645.236 421.612 605.109 430.248C601.869 430.948 598.637 431.671 595.406 432.407C584.488 434.833 573.577 435.96 562.412 436.038C561.555 436.049 560.699 436.06 559.816 436.071C553.743 436.035 553.743 436.035 551.125 433.417C550.892 429.914 550.807 426.518 550.823 423.013C550.819 421.929 550.815 420.845 550.811 419.727C550.801 416.1 550.808 412.473 550.815 408.845C550.813 406.29 550.81 403.735 550.806 401.18C550.8 394.333 550.81 387.487 550.825 380.64C550.833 376.419 550.837 372.197 550.84 367.976C550.871 326.055 551.405 284.216 553.455 242.341C553.071 242.981 552.687 243.621 552.291 244.28C551.778 245.119 551.266 245.959 550.738 246.824C550.233 247.656 549.729 248.488 549.209 249.345C546.657 253.087 543.488 255.479 539.473 257.487C534.755 257.761 530.034 257.753 525.309 257.767C522.971 257.778 520.634 257.814 518.297 257.851C503.805 257.91 503.805 257.91 497.527 253.992C495.242 251.693 495.242 251.693 493.595 249.258C492.752 248.049 492.752 248.049 491.892 246.815C490.536 244.671 490.536 244.671 489.371 242.341C489.4 243.119 489.429 243.898 489.459 244.7C491.127 289.762 491.958 334.795 491.989 379.889C491.992 383.619 492.001 387.349 492.01 391.079C492.024 396.981 492.024 402.884 492.014 408.787C492.012 410.982 492.013 413.177 492.018 415.372C492.024 418.379 492.016 421.386 492.003 424.393C492.007 425.281 492.012 426.169 492.017 427.083C491.968 433.151 491.968 433.151 489.371 435.747C460.588 439.242 426.786 429.193 399.653 420.601C398.398 420.207 397.144 419.812 395.851 419.406C385.489 416.059 375.458 412.169 365.453 407.879C363.032 406.842 360.605 405.819 358.178 404.797C346.914 400.019 335.967 394.729 325.082 389.143C329.536 387.659 331.007 388.581 335.359 390.208C336.73 390.711 338.102 391.214 339.515 391.733C341.671 392.542 341.671 392.542 343.87 393.367C362.65 400.365 381.508 405.864 401.109 410.042C402.016 410.237 402.923 410.433 403.857 410.634C418.317 413.734 432.829 416.408 447.425 418.78C448.317 418.927 449.208 419.073 450.127 419.224C452.696 419.641 455.267 420.048 457.838 420.451C459.291 420.678 460.743 420.906 462.24 421.14C468.918 422.069 475.656 422.461 482.38 422.931C481.038 348.309 481.038 348.309 478.375 273.726C478.32 272.521 478.32 272.521 478.265 271.292C477.01 243.744 475.314 216.231 473.058 188.746C483.115 185.537 492.955 185.068 503.457 185.055Z" fill="#5BF9FA"/>
<path d="M383.34 491.672C384.386 492.059 384.386 492.059 385.453 492.454C403.346 499.058 420.982 505.156 439.637 509.236C459.144 513.647 459.144 513.647 463.482 520.098C467.772 528.222 470.82 537.012 474.101 545.576C478.428 556.571 481.622 562.977 492.648 568.277C494.001 568.944 495.354 569.611 496.749 570.298C505.477 573.904 513.088 574.792 522.432 574.758C523.46 574.777 524.487 574.796 525.546 574.815C534.988 574.822 543.808 572.839 552.071 568.132C552.872 567.69 553.672 567.248 554.497 566.793C560.617 562.502 563.613 558.208 566.199 551.238C566.789 549.689 567.379 548.14 567.97 546.591C568.265 545.798 568.56 545.006 568.864 544.19C570.34 540.237 571.868 536.305 573.409 532.378C573.94 530.994 574.472 529.611 575.02 528.186C577.701 522.184 580.515 517.418 586.08 513.809C588.673 512.974 588.673 512.974 591.555 512.389C592.658 512.15 593.761 511.912 594.897 511.666C596.697 511.285 596.697 511.285 598.532 510.896C613.024 507.651 626.923 503.133 640.95 498.307C641.752 498.032 642.553 497.757 643.379 497.474C645.565 496.721 647.748 495.961 649.931 495.2C653.12 494.175 656.189 493.404 659.485 492.837C658.992 508.356 655.937 519.603 645.503 531.285C644.921 531.976 644.338 532.667 643.737 533.379C633.365 544.799 618.118 552.437 603.557 556.917C605.095 558.071 606.633 559.224 608.218 560.413C607.494 564.615 606.353 568.311 604.727 572.25C604.268 573.367 603.809 574.484 603.337 575.634C602.857 576.787 602.377 577.94 601.882 579.127C601.407 580.284 600.932 581.442 600.442 582.634C598.499 587.341 596.566 592 594.236 596.531C589.857 595.761 586.701 593.759 582.948 591.433C571.285 584.574 560.256 581.095 546.632 584.561C542.159 586.149 537.875 588.038 533.565 590.023C521.068 595.629 521.068 595.629 513.839 593.036C509.956 591.379 506.148 589.627 502.361 587.761C492.729 583.256 483.256 581.785 472.872 584.775C465.904 587.571 459.515 591.153 453.205 595.206C450.92 596.531 450.92 596.531 448.59 596.531C442.66 585.354 436.478 573.034 434.608 560.413C436.21 558.083 436.21 558.083 438.103 556.917C433.934 555.094 429.923 553.414 425.578 552.039C409.136 545.913 395.034 530.95 387.127 515.702C384.404 507.805 383.181 500.018 383.34 491.672Z" fill="#FBC595"/>
<path d="M749.203 96.7031C760.46 99.237 767.536 110.98 773.672 120.005C782.019 133.908 774.335 161.541 770.773 176.44C765.757 195.693 756.803 213.538 746.873 230.69C752.771 226.443 758.297 221.917 763.768 217.145C769.844 211.874 776.066 206.849 782.483 201.999C783.648 201.11 783.648 201.11 784.837 200.203C788.744 197.285 792.284 194.937 796.975 193.406C792.129 217.232 777.332 235.687 760.855 252.826C760.285 253.422 759.715 254.017 759.128 254.63C745.162 269.141 729.516 280.869 713.083 292.44C712.402 292.93 711.721 293.42 711.02 293.925C707.91 296.107 706.493 297.1 702.597 297.1C701.101 295.415 701.101 295.415 699.606 293.045C699.046 292.176 698.485 291.306 697.908 290.41C697.316 289.47 696.725 288.53 696.115 287.561C690.812 279.338 685.249 271.535 679.134 263.899C676.963 260.982 676.963 260.982 675.798 257.487C672.337 259.794 670.007 260.959 666.476 263.312C666.476 263.312 662.923 258.74 660.359 255.594C659.752 254.858 659.146 254.122 658.52 253.363C658.07 252.802 657.619 252.24 657.155 251.661C658.2 251.053 664.234 247.628 665.311 247.001C682.674 236.801 693.969 228.249 709.588 215.543C710.511 214.815 711.435 214.086 712.387 213.336C731.642 197.556 734.67 172.1 739.882 149.133C740.109 148.147 740.336 147.161 740.57 146.145C744.309 129.805 746.788 113.284 749.203 96.7031Z" fill="#2DB5DC"/>
<path d="M292.457 95.5381C294.7 98.9021 295.183 100.197 295.748 104.017C295.908 105.051 296.069 106.086 296.234 107.151C296.406 108.293 296.577 109.435 296.754 110.612C302.702 160.351 302.702 160.351 322.752 205.057C323.259 205.759 323.767 206.46 324.29 207.183C329.418 213.702 336.079 218.602 342.56 223.699C343.839 224.744 343.839 224.744 345.145 225.811C357.348 235.646 371.144 243.516 384.506 251.661C382.379 256.232 379.632 259.512 376.349 263.312C375.484 262.904 374.619 262.495 373.728 262.074C370.241 260.886 369.222 260.898 365.863 262.147C363.692 264.679 361.79 267.142 359.891 269.866C359.34 270.637 358.79 271.407 358.222 272.201C352.422 280.371 346.877 288.716 341.394 297.1C335.658 295.211 331.175 291.92 326.32 288.435C325.448 287.812 324.576 287.19 323.677 286.549C310.867 277.342 298.595 267.696 287.182 256.793C286.03 255.695 284.873 254.602 283.71 253.515C271.047 241.659 259.608 228.19 252.842 212.048C252.487 211.238 252.133 210.429 251.767 209.595C249.561 204.214 248.698 199.194 248.181 193.406C253.506 196.35 258.006 200.029 262.673 203.892C264.329 205.251 265.985 206.609 267.643 207.966C268.476 208.647 269.309 209.329 270.167 210.031C275.218 214.134 280.352 218.132 285.48 222.138C288.599 224.58 291.699 227.044 294.788 229.525C294.223 228.533 293.658 227.542 293.076 226.521C286.289 214.349 281.044 201.779 276.145 188.746C275.404 186.818 275.404 186.818 274.648 184.85C269.327 170.125 267.682 154.837 266.678 139.302C266.512 137.398 266.512 137.398 266.343 135.456C265.856 125.592 268.566 120.366 274.98 113.015C275.573 112.302 276.167 111.59 276.779 110.856C278.343 109.027 279.956 107.265 281.607 105.514C282.142 104.929 282.678 104.344 283.229 103.742C286.098 100.653 288.987 97.9355 292.457 95.5381Z" fill="#2CB3DA"/>
<path d="M510.276 616.424C519.207 619.128 527.682 618.395 536.123 614.59C548.008 609.601 561.561 609.398 573.636 614.015C605.06 627.717 624.68 654.552 641.525 683.19C642.224 684.373 642.224 684.373 642.936 685.58C643.79 687.036 644.635 688.496 645.47 689.963C648.081 694.445 651.145 697.768 654.825 701.39C654.825 702.159 654.825 702.928 654.825 703.72C643.655 703.674 634.551 700.005 624.53 695.564C623.641 695.219 622.752 694.874 621.836 694.518C606.044 687.872 593.226 670.159 584.915 655.951C583.433 660.396 584.598 662.08 586.08 666.437C586.225 669.787 586.225 669.787 586.08 672.263C581.25 670.653 579.499 667.242 576.686 663.233C575.542 661.637 574.396 660.043 573.249 658.45C572.67 657.643 572.092 656.836 571.495 656.004C568.895 652.418 566.211 648.899 563.505 645.392C562.606 644.225 561.708 643.058 560.783 641.856C558.012 638.343 555.17 634.908 552.29 631.484C553.806 636.237 553.806 636.237 555.785 640.805C555.832 643.523 555.836 646.242 555.785 648.961C553.863 648.192 551.94 647.423 549.96 646.63C549.96 645.861 549.96 645.092 549.96 644.3C546.611 642.958 543.259 641.624 539.905 640.295C538.378 639.688 536.85 639.081 535.322 638.475C534.17 638.02 534.17 638.02 532.994 637.555C526.95 635.15 526.95 635.15 524.148 633.523C521.093 632.283 519.339 632.968 516.17 633.814C514.041 634.852 511.953 635.975 509.902 637.159C508.733 637.828 507.564 638.498 506.359 639.187C505.151 639.889 503.942 640.591 502.697 641.315C500.293 642.697 497.889 644.08 495.483 645.461C494.422 646.076 493.361 646.691 492.268 647.324C489.78 648.729 487.279 650.043 484.71 651.291C484.133 648.984 484.133 648.984 483.545 646.63C482.776 646.63 482.007 646.63 481.215 646.63C480.919 647.285 480.623 647.94 480.318 648.615C477.488 653.896 473.372 658.342 469.563 662.942C468.871 663.781 468.178 664.621 467.465 665.486C462.78 671.011 457.702 675.844 452.085 680.418C450.903 681.434 450.903 681.434 449.696 682.471C448.946 682.947 448.197 683.423 447.425 683.914C446.271 683.529 445.118 683.145 443.929 682.748C441.076 684.679 441.076 684.679 438.103 687.409C422.853 700.294 407.726 707.494 387.637 707.288C386.663 707.283 385.689 707.278 384.685 707.272C382.295 707.259 379.905 707.238 377.515 707.215C380.448 704.94 383.369 703.03 386.618 701.244C396.29 695.194 401.648 684.401 407.154 674.738C412.374 665.75 417.597 657.076 424.121 648.961C425.074 647.744 425.074 647.744 426.047 646.503C446.919 621.163 478.249 604.728 510.276 616.424Z" fill="#415575"/>
<path d="M323.917 387.978C325.685 388.85 325.685 388.85 327.49 389.739C344.139 397.833 361.183 404.921 378.285 411.989C382.313 413.667 386.324 415.38 390.331 417.106C390.331 417.49 390.331 417.874 390.331 418.271C386.871 418.271 383.41 418.271 379.845 418.271C381.864 429.374 385.881 436.043 394.992 442.738C398.237 444.526 401.58 445.87 405.042 447.18C406.026 447.563 407.01 447.947 408.024 448.342C424.333 454.53 441.17 459.339 457.898 464.256C485.061 472.311 485.061 472.311 492.866 484.681C495.772 490.666 497.362 496.462 498.692 502.959C499.092 504.811 499.492 506.664 499.894 508.516C500.578 511.716 501.256 514.917 501.933 518.119C502.209 519.34 502.485 520.561 502.77 521.819C502.998 522.873 503.227 523.927 503.462 525.014C505.034 529.146 507.575 531.649 511.509 533.615C514.753 533.792 517.949 533.885 521.194 533.907C522.08 533.931 522.965 533.955 523.877 533.98C529.25 534.017 532.859 533.709 537.143 530.12C541.509 524.897 541.879 518.43 542.896 511.915C545.284 497.897 547.666 484.103 559.254 474.646C569.355 467.93 581.511 465.01 592.997 461.498C602.074 458.717 611.135 455.89 620.159 452.939C621.67 452.447 623.182 451.962 624.696 451.482C644.252 445.297 644.252 445.297 658.32 431.087C662.764 418.52 659.619 420.571 667.059 411.28C670.881 407.833 675.219 407.556 679.949 405.623C680.914 405.218 681.879 404.814 682.873 404.397C684.908 403.547 686.945 402.702 688.984 401.863C692.104 400.578 695.216 399.278 698.327 397.975C700.308 397.149 702.29 396.325 704.272 395.501C705.201 395.114 706.131 394.727 707.089 394.328C707.96 393.97 708.831 393.612 709.729 393.243C710.872 392.771 710.872 392.771 712.038 392.29C714.248 391.473 714.248 391.473 716.788 390.926C717.488 390.722 718.188 390.518 718.909 390.308C718.909 390.308 723.275 404.982 723.57 408.95C723.7 410.441 723.831 411.933 723.966 413.469C724.057 415.142 724.143 416.816 724.225 418.489C724.299 419.293 724.373 420.096 724.449 420.925C724.521 423.272 724.521 423.272 723.57 427.591C718.313 432.791 710.745 434.934 703.835 437.058C702.964 437.336 702.094 437.614 701.197 437.9C699.434 438.463 697.67 439.021 695.904 439.574C693.332 440.39 690.772 441.237 688.214 442.096C681.937 444.199 675.626 446.194 669.316 448.199C661.578 450.661 653.849 453.145 646.154 455.74C644.944 456.149 643.733 456.557 642.486 456.977C640.221 457.744 637.958 458.516 635.697 459.293C628.155 461.848 620.547 463.94 612.844 465.957C605.664 467.866 598.572 470.064 591.481 472.278C589.041 473.038 586.597 473.785 584.152 474.532C579.718 475.899 575.322 477.353 570.933 478.856C569.943 479.183 568.953 479.511 567.933 479.848C561.963 482.241 559.535 485.812 556.984 491.634C554.645 498.53 553.398 505.633 552.144 512.789C547.746 537.276 547.746 537.276 543.164 541.33C542.403 541.644 541.641 541.957 540.857 542.281C540.104 542.616 539.352 542.951 538.576 543.296C526.688 546.981 513.981 546.445 502.429 542.081C498.523 539.841 496.781 537.215 495.374 532.954C495.12 531.845 494.866 530.735 494.605 529.592C494.316 528.355 494.027 527.119 493.73 525.844C493.445 524.564 493.16 523.284 492.866 521.964C492.59 520.738 492.314 519.512 492.03 518.248C491.756 517.03 491.482 515.811 491.2 514.555C490.923 513.328 490.645 512.101 490.358 510.837C489.794 508.336 489.241 505.833 488.702 503.327C486.73 494.756 484.211 487.818 478.024 481.423C473.76 479.155 469.271 477.717 464.684 476.234C463.596 475.877 462.508 475.52 461.387 475.152C452.419 472.251 443.365 469.736 434.273 467.261C419.882 463.28 405.689 458.675 391.47 454.124C389.423 453.468 387.376 452.813 385.329 452.159C383.843 451.683 383.843 451.683 382.326 451.197C374.56 448.719 366.761 446.364 358.945 444.048C351.018 441.676 343.224 439.071 335.496 436.111C334.655 435.792 333.815 435.473 332.949 435.145C327.964 433.17 323.356 431.122 319.256 427.591C318.492 424.224 318.492 424.224 318.674 420.31C318.768 418.16 318.768 418.16 318.865 415.968C318.986 414.404 319.117 412.842 319.256 411.28C319.329 410.453 319.403 409.626 319.478 408.773C320.998 392.809 320.998 392.809 323.917 387.978Z" fill="#105C95"/>
<path d="M445.094 235.35C447.89 246.683 448.167 258.038 448.663 269.648C448.842 273.651 449.027 277.655 449.213 281.658C449.257 282.624 449.301 283.589 449.346 284.584C449.572 289.357 449.874 294.091 450.383 298.843C451.247 307.556 451.224 316.312 451.264 325.06C451.278 327.105 451.302 329.15 451.336 331.194C451.735 355.134 451.735 355.134 444.341 363.299C438.353 369.112 431.528 371.786 423.247 372.104C409.568 371.581 396.887 366.971 386.64 357.74C375.631 345.816 374.66 333.683 375.076 318.082C375.526 308.376 378.774 299.136 382.175 290.11C382.54 289.138 382.905 288.166 383.281 287.165C393.018 264.833 417.729 249.228 438.103 237.68C441.599 235.35 441.599 235.35 445.094 235.35Z" fill="#455A77"/>
<path d="M597.731 235.35C603.698 235.762 608.349 238.997 613.315 242.049C614.238 242.616 615.16 243.182 616.11 243.765C625.587 249.749 633.872 256.802 642.008 264.478C642.597 265.03 643.186 265.582 643.793 266.151C658.18 279.744 668.39 296.179 669.198 316.534C669.226 318.94 669.241 321.346 669.244 323.752C669.272 324.946 669.301 326.14 669.33 327.37C669.376 339.562 665.967 348.77 657.551 357.64C646.402 367.356 631.69 372.15 617.061 371.908C609.979 371.342 604.424 369.644 599.552 364.312C593.94 357.454 593.902 349.891 593.967 341.452C593.967 340.317 593.967 339.182 593.967 338.012C593.972 334.302 593.994 330.593 594.017 326.883C594.026 324.315 594.035 321.746 594.043 319.177C594.112 302.955 594.338 286.738 594.746 270.522C594.768 269.595 594.791 268.668 594.814 267.714C595.582 237.5 595.582 237.5 597.731 235.35Z" fill="#465B77"/>
<path d="M581.419 228.359C583.069 228.703 584.718 229.053 586.367 229.406C587.744 229.698 587.744 229.698 589.15 229.995C593.027 230.972 596.445 232.492 600.062 234.185C599.293 234.954 598.524 235.723 597.732 236.515C595.765 247.568 596.184 259.302 595.911 270.521C595.887 271.473 595.864 272.425 595.84 273.406C595.445 289.908 595.214 306.413 595.132 322.92C595.117 325.451 595.097 327.983 595.071 330.514C595.036 334.084 595.024 337.654 595.019 341.224C595.005 342.28 594.99 343.337 594.975 344.425C595.004 352.748 596.136 359.46 602.101 365.695C610.556 371.223 619.414 371.564 629.141 369.919C641.112 367.214 652.47 362.496 660.651 353.025C669.15 339.136 669.919 322.774 667.102 306.872C665.771 301.503 663.914 296.394 661.816 291.275C661.368 290.15 660.921 289.025 660.459 287.866C660.138 287.068 659.817 286.271 659.485 285.449C668.003 293.465 673.795 302.702 679.148 313.048C679.752 314.213 680.357 315.378 680.98 316.579C690.603 335.515 699.067 356.259 701.432 377.492C688.506 382.793 675.654 387.289 662.126 390.783C659.5 391.47 656.884 392.19 654.27 392.921C634.235 398.457 613.815 402.191 593.362 405.819C592.246 406.018 591.129 406.218 589.979 406.424C588.939 406.604 587.898 406.784 586.826 406.97C585.919 407.128 585.013 407.286 584.078 407.449C581.224 407.809 578.467 407.841 575.593 407.785C575.267 347.914 576.802 288.066 581.419 228.359Z" fill="#1E2D4F"/>
<path d="M461.407 228.359C462.436 231.971 462.81 235.362 463.007 239.109C463.106 240.939 463.106 240.939 463.207 242.806C463.274 244.129 463.341 245.452 463.409 246.814C463.519 248.895 463.519 248.895 463.631 251.018C463.786 253.975 463.939 256.932 464.089 259.889C464.314 264.287 464.546 268.684 464.779 273.081C466.475 305.439 467.416 337.708 467.313 370.104C467.3 374.379 467.295 378.654 467.289 382.928C467.277 391.214 467.258 399.499 467.233 407.785C464.998 407.605 462.763 407.424 460.529 407.242C458.662 407.09 458.662 407.09 456.758 406.936C439.575 405.385 422.548 400.831 405.772 396.993C402.395 396.227 399.014 395.486 395.629 394.755C354.991 385.779 354.991 385.779 342.56 377.492C345.224 344.854 363.316 307.832 384.506 283.119C384.89 283.888 385.275 284.657 385.671 285.449C384.592 288.489 384.592 288.489 382.976 292.149C376.136 307.75 372.546 328.126 378.648 344.715C384.506 356.875 395.068 363.978 407.536 368.508C410.783 369.541 413.727 370.218 417.13 370.501C417.989 370.575 418.849 370.649 419.734 370.724C428.215 371.133 436.03 369.599 442.637 363.961C448.766 357.252 450.114 350.383 450.065 341.424C450.068 340.53 450.071 339.635 450.074 338.714C450.079 335.79 450.064 332.866 450.046 329.941C450.044 328.935 450.041 327.929 450.038 326.893C449.972 306.794 448.944 286.844 447.425 266.808C447.214 263.895 447.003 260.982 446.792 258.069C446.592 255.399 446.391 252.729 446.187 250.059C446.048 248.24 446.048 248.24 445.907 246.385C445.818 245.282 445.728 244.178 445.636 243.041C445.521 241.606 445.521 241.606 445.404 240.141C445.149 237.463 445.149 237.463 443.929 234.185C446.183 233.206 448.442 232.237 450.702 231.272C452.588 230.461 452.588 230.461 454.511 229.634C457.911 228.359 457.911 228.359 461.407 228.359Z" fill="#1E2D4F"/>
<path d="M774.254 121.17C778.33 125.048 781.294 132.382 783.576 137.482C783.928 138.263 784.281 139.045 784.644 139.85C789.073 149.83 792.194 159.053 793.4 169.948C794.743 182.966 794.743 182.966 802.574 193.061C806.029 196.675 807.984 200.659 810.156 205.13C810.724 206.287 810.724 206.287 811.304 207.467C818.58 222.685 818.58 222.685 816.783 230.69C816.941 231.915 816.941 231.915 817.102 233.166C817.476 236.161 817.504 238.234 816.783 241.176C814.577 243.223 814.577 243.223 811.64 245.131C810.578 245.83 809.516 246.529 808.421 247.249C807.336 247.936 806.25 248.623 805.131 249.331C804.176 249.947 803.22 250.563 802.235 251.197C799.357 253.03 796.46 254.827 793.553 256.613C792.49 257.267 791.428 257.92 790.333 258.593C775.275 267.814 760.06 276.612 744.417 284.807C742.428 285.85 740.442 286.897 738.457 287.945C730.842 291.89 723.19 295.264 715.142 298.229C712.481 299.221 709.912 300.292 707.33 301.47C703.654 302.97 700.751 304.003 696.771 304.091C692.786 300.77 690.413 296.886 687.814 292.44C683.154 284.632 677.836 277.52 672.302 270.303C670.334 267.602 667.819 265.462 665.894 262.73C672.594 258.07 673.176 257.487 675.798 257.487C677.519 259.404 677.519 259.404 679.521 262.093C680.255 263.074 680.99 264.055 681.746 265.065C682.911 266.649 682.911 266.649 684.1 268.264C684.886 269.324 685.672 270.384 686.483 271.477C702.597 293.319 702.597 293.319 702.597 297.1C709.806 293.279 716.539 289.087 723.133 284.284C724.038 283.626 724.944 282.967 725.876 282.288C757.758 258.782 783.975 231.32 796.975 193.407C787.235 199.956 778.021 206.84 769.011 214.378C765.743 217.083 762.463 219.774 759.18 222.461C758.38 223.123 757.58 223.785 756.755 224.467C755.995 225.089 755.234 225.711 754.451 226.352C753.439 227.186 753.439 227.186 752.406 228.036C750.268 229.598 748.104 230.738 745.708 231.855C746.091 231.2 746.474 230.545 746.868 229.871C751.014 222.546 754.624 215.054 758.088 207.388C758.521 206.435 758.954 205.483 759.401 204.501C764.415 193.286 768.436 182.064 770.977 170.032C771.227 168.854 771.477 167.677 771.734 166.464C774.438 152.638 774.167 135.223 774.254 121.17Z" fill="#1571AA"/>
<path d="M266.824 125.831C267.208 125.831 267.593 125.831 267.989 125.831C268.006 126.609 268.023 127.388 268.04 128.19C268.899 163.548 275.254 198.641 295.953 228.359C295.568 229.128 295.184 229.897 294.788 230.69C293.631 229.745 292.475 228.8 291.283 227.827C280.885 219.348 270.415 210.975 259.833 202.727C258.729 201.867 257.625 201.006 256.487 200.119C254.109 198.268 251.729 196.418 249.346 194.571C251.554 216.654 266.051 233.794 280.806 249.331C281.86 250.447 282.914 251.563 284.001 252.713C298.339 267.615 315.21 279.41 332.073 291.275C332.762 291.761 333.452 292.248 334.162 292.75C337.47 295.204 337.47 295.204 341.394 295.935C343.124 293.791 343.124 293.791 344.863 290.992C345.544 289.947 346.226 288.901 346.928 287.823C348.01 286.144 348.01 286.144 349.114 284.43C354.712 275.866 360.312 267.555 367.028 259.817C372.563 260.836 373.728 262.002 376.349 263.312C376.349 263.312 369.968 272.183 366.373 276.929C365.205 278.486 364.038 280.044 362.873 281.603C362.099 282.628 362.099 282.628 361.309 283.673C356.598 289.912 355.254 293.638 350.133 302.343C308.221 300.846 256.581 262.211 223.712 238.845C224.028 224.774 228.947 212.627 235.364 200.324C235.737 199.603 236.109 198.882 236.493 198.138C238.402 194.622 240.211 192.068 243.152 189.328C246.598 185.609 246.709 183.337 247.089 178.333C248.35 165.798 251.899 154.356 256.847 142.797C257.329 141.661 257.329 141.661 257.822 140.502C260.233 135.091 263.199 130.52 266.824 125.831Z" fill="#156FA9"/>
<path d="M323.917 387.978C325.685 388.85 325.685 388.85 327.49 389.739C344.139 397.833 361.183 404.921 378.285 411.989C382.313 413.667 386.324 415.38 390.331 417.106C390.331 417.49 390.331 417.874 390.331 418.271C386.871 418.271 383.41 418.271 379.845 418.271C381.849 429.293 385.822 436.186 394.992 442.738C398.725 444.637 402.569 446.104 406.498 447.544C410.436 449.036 414.367 450.542 418.295 452.058C419.283 452.426 420.27 452.794 421.287 453.172C428.452 456.031 428.452 456.031 430.243 459.768C430.53 460.684 430.817 461.6 431.112 462.544C433.704 464.134 433.704 464.134 436.865 465.02C438.569 465.574 438.569 465.574 440.306 466.14C445.766 467.745 451.232 469.292 456.746 470.7C456.746 471.469 456.746 472.238 456.746 473.03C449.01 471.622 441.573 469.783 434.084 467.396C433.06 467.075 432.035 466.754 430.98 466.424C427.648 465.379 424.319 464.326 420.99 463.273C416.281 461.791 411.572 460.313 406.862 458.835C405.081 458.275 405.081 458.275 403.264 457.704C395.47 455.256 387.664 452.855 379.845 450.488C377.821 449.874 375.796 449.259 373.772 448.645C370.926 447.781 368.08 446.92 365.231 446.068C355.319 443.101 345.541 439.91 335.873 436.216C335.012 435.891 334.15 435.566 333.262 435.232C328.106 433.213 323.637 431.006 319.256 427.591C318.492 424.224 318.492 424.224 318.674 420.31C318.768 418.16 318.768 418.16 318.865 415.968C318.986 414.404 319.117 412.842 319.256 411.28C319.329 410.453 319.403 409.626 319.478 408.773C320.998 392.809 320.998 392.809 323.917 387.978Z" fill="#0C4B86"/>
<path d="M351.881 556.917C354.812 559.548 356.353 562.042 357.98 565.615C358.453 566.637 358.926 567.659 359.414 568.712C359.908 569.794 360.402 570.876 360.911 571.991C364.808 580.374 368.844 588.445 373.696 596.322C375.184 598.861 375.184 598.861 376.35 602.356C376.734 600.818 377.119 599.28 377.515 597.696C378.284 597.696 379.053 597.696 379.845 597.696C380.614 598.849 381.383 600.003 382.175 601.191C383.329 600.422 384.482 599.653 385.671 598.861C386.223 608.889 385.037 618.342 382.175 627.989C381.022 629.142 381.022 629.142 379.845 630.319C379.476 629.089 379.106 627.859 378.725 626.591C374.186 612.016 368.034 598.515 361.202 584.88C360.789 586.069 360.376 587.259 359.951 588.484C352.385 609.431 341.22 628.765 329.743 647.795C333.829 646.435 333.829 646.435 337.899 645.028C338.692 644.755 339.485 644.481 340.302 644.2C342.779 643.031 344.241 641.669 346.055 639.64C347.209 640.216 347.209 640.216 348.385 640.805C347.753 641.538 347.121 642.27 346.469 643.026C341.398 649.093 337.82 654.18 335.569 661.776C332.073 659.446 332.073 659.446 330.908 657.116C315.945 669.3 308.399 683.511 301.779 701.39C301.008 703.334 300.234 705.277 299.448 707.215C299.064 707.215 298.679 707.215 298.283 707.215C291.024 667.819 302.399 635.7 323.917 603.521C325.07 601.959 326.232 600.403 327.412 598.861C327.819 607.183 326.487 613.765 323.917 621.653C323.417 623.249 323.417 623.249 322.907 624.878C322.091 627.473 321.263 630.062 320.421 632.649C321.19 632.649 321.959 632.649 322.752 632.649C323.021 632.039 323.289 631.429 323.566 630.801C325.186 627.796 327.106 625.115 329.134 622.373C343.96 602.32 348.777 581.317 351.881 556.917Z" fill="#1E2D4F"/>
<path d="M690.945 554.587C691.33 554.587 691.714 554.587 692.11 554.587C692.211 556.11 692.311 557.633 692.415 559.202C694.469 586.591 701.441 607.752 718.909 629.154C718.741 628.027 718.573 626.901 718.399 625.74C717.168 617.102 716.208 608.776 716.579 600.026C719.669 603.911 722.1 608.085 724.516 612.405C727.276 617.312 730.095 622.14 733.11 626.896C747.156 650.294 747.228 676.279 744.543 702.555C743.389 702.555 742.236 702.555 741.047 702.555C740.93 701.944 740.813 701.332 740.692 700.703C736.598 683.85 725.519 668.86 713.083 657.116C712.314 656.732 711.545 656.347 710.753 655.951C711.33 657.321 711.906 658.69 712.501 660.102C714.283 664.797 714.56 668.443 714.248 673.428C713.095 672.851 713.095 672.851 711.918 672.262C711.386 670.264 711.386 670.264 710.971 667.675C709.682 661.216 706.865 655.883 703.762 650.126C702.98 648.575 702.201 647.022 701.432 645.465C706.594 646.065 709.887 647.354 714.248 650.126C713.844 649.382 713.441 648.639 713.024 647.873C709.026 640.512 705.04 633.144 701.059 625.774C699.374 622.665 697.674 619.566 695.965 616.47C682.789 592.4 682.789 592.4 682.789 583.715C681.707 584.868 681.707 584.868 680.604 586.045C678.128 588.375 678.128 588.375 675.798 588.375C677.284 583.674 679.015 579.278 681.159 574.84C681.73 573.654 682.301 572.467 682.889 571.245C683.481 570.025 684.073 568.806 684.682 567.549C685.283 566.303 685.884 565.056 686.503 563.772C687.98 560.708 689.461 557.647 690.945 554.587Z" fill="#1E2D50"/>
<path d="M292.457 95.5381C294.7 98.9021 295.183 100.197 295.748 104.017C295.908 105.051 296.069 106.086 296.234 107.151C296.406 108.293 296.577 109.435 296.754 110.612C302.702 160.351 302.702 160.351 322.752 205.057C323.259 205.759 323.767 206.46 324.29 207.183C329.418 213.702 336.079 218.602 342.56 223.699C343.413 224.396 344.266 225.093 345.145 225.811C352.792 231.974 361.05 237.13 369.358 242.341C370.902 243.312 370.902 243.312 372.476 244.302C374.54 245.596 376.609 246.882 378.68 248.166C377.791 249.031 376.901 249.896 375.985 250.788C373.507 253.323 371.39 255.764 369.358 258.652C362.984 256.281 357.728 252.734 352.099 248.967C351.016 248.242 349.933 247.517 348.816 246.77C317.919 225.815 300.974 207.123 293.55 169.74C293.25 168.247 292.95 166.753 292.64 165.215C292.055 162.292 291.472 159.369 290.893 156.445C290.286 153.421 289.652 150.409 288.985 147.399C286.896 137.529 285.742 127.561 284.738 117.529C284.572 116.159 284.405 114.79 284.234 113.378C283.4 103.779 283.4 103.779 286.096 100.04C288.136 98.2817 290.107 96.8465 292.457 95.5381Z" fill="#60F8F9"/>
<path d="M749.203 96.7031C753.685 97.6853 755.83 98.6402 758.525 102.529C759.035 106.18 758.744 109.714 758.452 113.379C758.379 114.463 758.307 115.548 758.232 116.665C757.98 120.113 757.679 123.553 757.36 126.996C757.265 128.053 757.17 129.111 757.072 130.201C755.718 144.382 753.083 158.21 749.859 172.07C749.355 174.239 749.355 174.239 748.841 176.451C745.625 189.819 742.489 202.163 734.056 213.213C733.215 214.366 732.374 215.52 731.507 216.708C726.862 222.098 720.958 226.28 715.414 230.69C714.541 231.433 713.668 232.176 712.769 232.942C684.726 256.564 684.726 256.564 674.633 256.249C671.304 254.689 669.786 252.262 667.642 249.331C666.873 248.562 666.104 247.793 665.311 247.001C666.073 246.503 666.835 246.006 667.619 245.493C682.058 236.035 696.315 226.594 709.588 215.543C710.499 214.822 711.411 214.101 712.35 213.359C731.644 197.604 734.669 172.103 739.882 149.133C740.109 148.147 740.336 147.161 740.57 146.145C744.309 129.805 746.788 113.284 749.203 96.7031Z" fill="#5CFAF9"/>
<path d="M526.656 652.456C529.818 653.795 532.477 655.614 535.249 657.626C536.002 658.15 536.755 658.675 537.531 659.215C544.065 663.853 550.054 668.994 555.785 674.592C556.419 675.208 557.053 675.824 557.706 676.458C559.025 677.762 560.321 679.087 561.611 680.418C562.765 681.571 562.765 681.571 563.942 682.748C563.65 685.734 563.65 685.734 562.776 688.574C559.487 690.218 556.684 689.893 553.018 689.884C551.687 689.887 550.357 689.89 548.986 689.893C545.299 689.739 545.299 689.739 543.169 689.156C539.979 688.422 537.024 688.422 533.752 688.419C531.732 688.417 531.732 688.417 529.672 688.414C528.268 688.419 526.864 688.423 525.418 688.428C523.36 688.421 523.36 688.421 521.26 688.414C513.811 688.423 506.492 688.708 499.081 689.464C495.866 689.789 492.674 689.972 489.444 690.03C488.424 690.06 487.404 690.09 486.353 690.121C482.985 689.662 481.404 688.465 478.884 686.243C483.672 671.564 502.14 660.702 514.984 653.489C518.839 651.795 522.576 651.789 526.656 652.456Z" fill="#E4794A"/>
<path d="M683.954 706.05C684.723 706.05 685.492 706.05 686.284 706.05C684.887 713.91 678.221 719.422 671.938 723.818C670.137 724.919 668.316 725.987 666.476 727.022C665.658 727.506 664.839 727.989 663.996 728.488C657.36 731.788 650.964 732.126 643.683 732.192C642.761 732.204 641.839 732.216 640.889 732.228C634.139 732.129 628.47 730.642 622.2 728.187C622.577 729.467 622.954 730.746 623.342 732.065C624.832 738.063 624.929 743.876 624.895 750.033C624.89 751.77 624.89 751.77 624.885 753.543C624.773 761.615 624.116 769.502 622.928 777.485C622.782 778.473 622.635 779.46 622.484 780.477C621.351 787.291 621.351 787.291 618.705 789.937C617.951 786.564 617.199 783.19 616.447 779.816C616.235 778.864 616.022 777.913 615.803 776.932C615.392 775.089 614.985 773.244 614.582 771.399C614.153 769.459 613.7 767.525 613.238 765.593C612.879 763.14 612.879 763.14 614.044 759.645C613.989 741.607 611.244 724.713 601.227 709.546C601.612 708.777 601.996 708.008 602.392 707.215C603.66 707.848 604.928 708.48 606.234 709.131C624.875 718.28 643.512 724.334 664.001 717.556C671.109 714.918 677.848 711.755 683.954 707.215C683.954 706.831 683.954 706.446 683.954 706.05Z" fill="#1E2E50"/>
<path d="M360.037 706.05C360.422 707.204 360.806 708.357 361.202 709.546C363.744 710.739 363.744 710.739 367.028 711.876C368.416 712.621 369.799 713.374 371.179 714.133C387.028 722.072 402.994 721.472 419.544 716.16C424.764 714.328 429.788 712.061 434.808 709.746C438.103 708.38 438.103 708.38 441.599 708.38C440.777 709.924 440.777 709.924 439.938 711.498C430.764 729.018 427.938 744.541 431.112 764.305C429.959 763.729 429.959 763.729 428.782 763.14C428.473 764.543 428.163 765.946 427.844 767.391C427.429 769.227 427.013 771.062 426.597 772.898C426.395 773.823 426.192 774.748 425.983 775.701C425.78 776.587 425.577 777.474 425.368 778.387C425.185 779.204 425.002 780.022 424.814 780.864C424.121 782.947 424.121 782.947 421.791 785.277C420.972 782.177 420.202 779.076 419.461 775.956C419.238 775.081 419.016 774.205 418.787 773.303C417.16 765.948 416.919 758.771 416.912 751.271C416.911 750.288 416.91 749.305 416.909 748.293C416.962 742.276 417.437 736.474 418.296 730.517C417.533 730.601 416.77 730.686 415.983 730.772C395.352 732.87 382.005 730.804 364.843 718.866C361.848 716.047 359.786 713.087 357.707 709.546C357.707 708.777 357.707 708.008 357.707 707.215C358.476 706.831 359.245 706.446 360.037 706.05Z" fill="#1F2E50"/>
<path d="M598.897 235.35C612.682 240.471 630.773 250.202 638.148 263.312C640.407 268.959 640.535 274.815 639.678 280.789C637.579 284.287 636.295 285.976 632.687 287.78C625.544 288.709 619.769 288.231 613.83 283.984C603.064 273.659 599.385 256.993 598.756 242.614C598.752 240.192 598.816 237.77 598.897 235.35Z" fill="#748CA1"/>
<path d="M442.764 236.515C443.378 252.926 442.658 270.289 431.322 283.206C426.283 287.581 421.739 288.744 415.114 288.317C410.305 287.34 407.903 284.857 405.114 281.007C403.185 274.867 404.098 269.142 406.557 263.344C411.885 253.29 430.616 236.515 442.764 236.515Z" fill="#718A9F"/>
<path d="M518.5 743.333C522.043 745.105 522.349 747.774 523.743 751.416C524.236 752.676 524.729 753.937 525.236 755.235C528.193 764.417 529.413 773.246 529.351 782.874C529.346 783.931 529.341 784.987 529.336 786.076C529.159 796.899 527.565 807.297 525.491 817.9C525.285 818.965 525.08 820.03 524.868 821.128C523.568 827.829 522.218 834.518 520.83 841.202C517.885 838.257 518.212 837.205 518.063 833.119C517.563 825.465 516.057 818.199 514.375 810.737C509.271 787.895 510.375 765.385 518.5 743.333Z" fill="#617893"/>
<path d="M504.518 614.007C505.095 615.161 505.095 615.161 505.683 616.337C504.806 616.354 503.929 616.37 503.025 616.387C480.15 617.415 463.896 625.939 448.117 642.511C444.78 645.772 441.26 648.515 437.521 651.29C426.07 659.895 417.264 669.83 408.712 681.26C403.705 687.938 398.418 694.171 392.662 700.225C392.662 695.825 393.824 694.903 396.521 691.486C401 685.525 404.726 679.333 408.392 672.845C413.165 664.443 418.084 656.53 424.121 648.96C424.76 648.145 425.398 647.329 426.056 646.489C444.494 624.129 475.112 605.331 504.518 614.007Z" fill="#70859C"/>
<path d="M560.291 611.058C582.912 612.744 604.364 632.01 618.559 648.232C625.488 656.762 631.166 666.065 636.881 675.433C638.399 677.904 639.947 680.352 641.512 682.794C641.957 683.494 642.402 684.195 642.861 684.917C644.038 686.77 645.219 688.621 646.4 690.471C647.11 691.839 647.11 691.839 647.834 693.234C647.449 694.003 647.065 694.772 646.669 695.564C639.617 688.069 632.998 680.405 626.782 672.202C624.144 668.757 621.444 665.62 618.322 662.6C615.209 659.446 615.209 659.446 615.209 657.116C614.568 656.832 613.926 656.548 613.266 656.256C605.939 652.292 599.376 646.162 593.653 640.149C579.48 625.606 560.766 616.795 540.638 615.172C545.536 609.459 553.305 610.829 560.291 611.058Z" fill="#7086A0"/>
<path d="M623.365 622.163C623.996 622.995 624.627 623.827 625.277 624.684C628.186 628.181 631.35 631.221 634.726 634.251C635.345 634.815 635.964 635.379 636.602 635.96C639.969 639.015 643.394 641.973 646.887 644.883C663.142 659.147 671.008 677.048 674.633 697.895C674.633 699.432 674.633 700.97 674.633 702.555C668.562 700.647 664.728 697.363 661.537 691.95C660.009 688.999 658.541 686.025 657.082 683.04C648.659 666.45 638.377 651.974 625.812 638.263C620.422 632.314 620.422 632.314 619.87 627.989C621.545 624.785 621.545 624.785 623.365 622.163Z" fill="#203051"/>
<path d="M481.215 716.536C481.215 717.305 481.215 718.074 481.215 718.866C483.522 718.866 485.829 718.866 488.206 718.866C486.75 723.123 486.259 724.436 482.38 727.022C482.38 725.869 482.38 724.715 482.38 723.527C466.843 730.721 456.559 738.224 450.32 754.793C447.031 764.163 445.034 772.923 444.726 782.865C444.677 784.367 444.628 785.869 444.578 787.416C444.532 788.985 444.485 790.553 444.439 792.122C444.389 793.718 444.338 795.314 444.287 796.91C444.163 800.799 444.044 804.689 443.929 808.579C440.345 806.787 440.105 803.805 438.852 800.141C438.373 798.695 438.373 798.695 437.885 797.219C437.552 796.273 437.22 795.327 436.877 794.352C435.167 789.243 434.225 785.909 435.773 780.617C435.947 777.705 436.09 774.792 436.21 771.878C437.226 753.604 441.678 739.851 455.149 726.995C459.251 723.575 463.571 721.114 468.398 718.866C469.948 718.109 469.948 718.109 471.529 717.337C474.841 716.353 477.78 716.376 481.215 716.536Z" fill="#1F2E50"/>
<path d="M420.626 625.658C422.956 627.988 422.956 627.988 423.029 630.537C421.497 634.591 419.344 636.385 416.229 639.321C410.526 645.143 405.739 651.798 400.818 658.281C400.097 659.214 399.376 660.146 398.633 661.107C393.147 668.531 388.907 676.626 384.703 684.824C380.67 692.46 376.206 699.179 368.266 703.064C367.473 703.281 366.68 703.497 365.863 703.72C372.205 667.673 391.925 647.102 420.626 625.658Z" fill="#1F2F50"/>
<path d="M489.371 631.484C491.037 634.816 489.922 636.56 488.861 640.076C487.632 644.167 487.04 646.956 487.04 651.291C485.31 650.714 485.31 650.714 483.545 650.125C483.545 648.972 483.545 647.819 483.545 646.63C482.776 646.63 482.007 646.63 481.215 646.63C480.919 647.285 480.623 647.94 480.318 648.614C477.488 653.896 473.372 658.342 469.563 662.942C468.871 663.781 468.178 664.621 467.465 665.486C462.78 671.011 457.702 675.844 452.085 680.418C450.903 681.434 450.903 681.434 449.696 682.471C448.946 682.947 448.197 683.423 447.425 683.913C446.271 683.529 445.118 683.144 443.929 682.748C441.076 684.679 441.076 684.679 438.103 687.409C422.853 700.294 407.726 707.494 387.637 707.288C386.663 707.283 385.689 707.278 384.685 707.272C382.295 707.259 379.905 707.238 377.515 707.215C380.497 704.353 381.853 703.729 386.067 703.611C387.474 703.647 388.882 703.683 390.332 703.72C404.238 701.183 416.515 694.935 427.617 686.244C428.77 686.82 428.77 686.82 429.947 687.409C429.563 688.562 429.178 689.716 428.782 690.904C438.182 683.785 444.635 673.963 450.92 664.107C452.371 667.009 451.825 668.081 450.92 671.097C451.689 671.097 452.458 671.097 453.251 671.097C453.375 670.243 453.5 669.388 453.628 668.508C456.483 656.778 468.734 646.22 476.554 637.309C477.707 637.886 477.707 637.886 478.884 638.474C478.265 639.278 477.647 640.082 477.009 640.909C471.987 647.589 467.844 653.939 464.902 661.776C465.287 662.161 465.671 662.545 466.067 662.942C467.167 661.252 467.167 661.252 468.289 659.528C481.545 639.309 481.545 639.309 489.371 631.484Z" fill="#283A5A"/>
<path d="M551.125 630.319C556.648 634.244 560.304 639.001 564.306 644.373C564.97 645.252 565.635 646.132 566.319 647.038C570.79 652.974 575.176 658.966 579.457 665.04C581.482 667.684 583.675 669.963 586.08 672.262C585.681 670.956 585.681 670.956 585.274 669.623C584.772 667.902 584.772 667.902 584.259 666.146C583.921 665.01 583.583 663.875 583.235 662.705C582.593 659.49 582.657 657.825 583.749 654.786C587.34 658.059 590.055 661.222 592.634 665.345C601.032 678.287 612.236 690.08 626.861 695.564C628.537 696.288 628.537 696.288 630.247 697.025C637.987 700.259 644.576 701.903 652.945 702.268C657.024 702.652 659.561 703.865 662.981 706.05C662.981 706.435 662.981 706.819 662.981 707.215C640.086 708.009 620.426 703.175 602.683 687.918C598.308 683.656 594.34 679.089 591.906 673.428C591.906 672.274 591.906 671.121 591.906 669.932C591.137 669.932 590.368 669.932 589.575 669.932C590.344 673.393 591.113 676.853 591.906 680.418C585.192 675.412 585.192 675.412 582.584 673.428C581.656 672.753 580.728 672.079 579.772 671.384C575.983 668.093 573.139 664.39 570.132 660.393C566.519 655.116 566.519 655.116 561.611 651.291C561.227 652.444 560.842 653.598 560.446 654.786C557.533 652.383 557.533 652.383 554.62 648.96C554.475 644.955 554.475 644.955 554.62 640.805C553.528 638.439 552.372 636.101 551.125 633.814C551.125 632.661 551.125 631.507 551.125 630.319Z" fill="#233456"/>
<path d="M533.938 671.825C538.504 674.409 541.263 677.188 544.134 681.583C544.134 683.506 544.134 685.428 544.134 687.409C529.138 687.409 514.142 687.409 498.692 687.409C500.123 680.255 502.224 678.55 508.013 674.593C516.47 669.596 524.72 667.71 533.938 671.825Z" fill="#F6A771"/>
<path d="M463.737 779.451C467.035 783.32 468.487 787.144 470.091 791.944C470.349 792.706 470.607 793.468 470.872 794.253C471.706 796.72 472.528 799.19 473.35 801.661C474.486 805.045 475.628 808.428 476.772 811.81C477.053 812.641 477.333 813.472 477.622 814.328C480.218 821.98 483.025 829.549 486.058 837.04C487.825 841.596 488.614 844.646 487.04 849.357C486.271 849.357 485.502 849.357 484.71 849.357C476.007 834.34 467.914 819.304 462.253 802.84C461.454 800.395 461.454 800.395 460.241 798.093C459.472 798.477 458.703 798.862 457.911 799.258C459.12 792.189 460.637 785.932 463.737 779.451Z" fill="#283A5D"/>
<path d="M318.091 473.03C321.941 476.355 323.506 479.619 324.263 484.649C324.688 491.339 322.827 495.344 319.62 501.102C316.651 507.675 315.757 514.885 314.595 521.964C312.265 520.799 312.265 520.799 311.018 517.568C306.826 503.255 305.506 494.14 312.725 480.754C314.382 478.041 316.126 475.526 318.091 473.03Z" fill="#202F51"/>
<path d="M723.57 473.03C724.339 473.03 725.108 473.03 725.9 473.03C737.556 493.531 737.556 493.531 735.221 505.653C733.944 510.064 732.413 514.269 730.561 518.469C727.594 515.503 727.227 513.11 726.118 509.076C724.645 504.02 723.048 499.725 720.293 495.24C718.404 492.028 717.75 490.821 717.671 487.011C719.368 482.22 721.379 477.615 723.57 473.03Z" fill="#1F2E50"/>
<path d="M489.371 502.158C495.673 508.46 495.894 519.009 496.799 527.403C497.578 531.557 498.978 534.597 501.023 538.276C501.407 539.045 501.792 539.814 502.188 540.606C500.076 540.023 500.076 540.023 497.527 538.276C494.503 531.323 492.892 524.368 491.483 516.94C491.276 515.9 491.07 514.86 490.857 513.788C489.371 506.163 489.371 506.163 489.371 502.158Z" fill="#1C588B"/>
<path d="M365.863 456.719C367.393 457.078 368.922 457.443 370.451 457.811C371.728 458.115 371.728 458.115 373.031 458.425C375.184 459.049 375.184 459.049 376.349 460.214C378.748 460.54 381.147 460.735 383.559 460.938C384.604 461.156 384.604 461.156 385.671 461.379C386.055 462.148 386.44 462.917 386.836 463.709C379.11 463.304 372.791 462.59 365.863 459.049C365.863 458.28 365.863 457.511 365.863 456.719Z" fill="#201425"/>
<path d="M639.678 681.583C642.577 685.352 645.217 689.264 647.834 693.234C647.449 694.003 647.065 694.772 646.669 695.564C643.208 691.719 639.748 687.875 636.182 683.913C637.336 683.144 638.489 682.375 639.678 681.583Z" fill="#647A95"/>
<path d="M574.428 494.002C575.197 494.386 575.966 494.771 576.758 495.167C576.061 495.696 575.365 496.224 574.646 496.769C570.988 501.159 569.981 506.007 568.602 511.478C568.218 511.478 567.833 511.478 567.437 511.478C567.437 508.403 567.437 505.327 567.437 502.158C568.206 502.158 568.975 502.158 569.767 502.158C569.888 501.245 570.008 500.331 570.131 499.391C570.933 496.332 570.933 496.332 574.428 494.002Z" fill="#DD7E56"/>
<path d="M236.529 198.067C236.914 198.067 237.298 198.067 237.694 198.067C237.102 203.097 236.3 207.426 234.199 212.048C233.814 212.048 233.43 212.048 233.034 212.048C232.628 206.366 233.713 202.995 236.529 198.067Z" fill="#2A6C97"/>
<path d="M497.527 612.842C500.219 613.611 502.91 614.38 505.683 615.172C505.683 615.557 505.683 615.941 505.683 616.338C501.838 616.338 497.993 616.338 494.031 616.338C495.185 615.953 496.339 615.569 497.527 615.172C497.527 614.404 497.527 613.635 497.527 612.842Z" fill="#677B99"/>
<path d="M480.049 593.035C476.965 594.737 475.512 595.366 471.893 595.366C471.893 596.135 471.893 596.904 471.893 597.696C469.971 597.696 468.048 597.696 466.067 597.696C470.178 592.969 473.999 592.867 480.049 593.035Z" fill="#D97C57"/>
<path d="M607.781 554.441C608.694 554.489 609.607 554.538 610.548 554.587C609.779 556.509 609.01 558.432 608.218 560.413C606.295 559.259 604.373 558.106 602.392 556.917C604.722 554.587 604.722 554.587 607.781 554.441Z" fill="#D78553"/>
<path d="M743.378 530.12C744.147 530.12 744.916 530.12 745.708 530.12C744.554 533.965 743.401 537.81 742.212 541.771C741.828 541.771 741.443 541.771 741.047 541.771C740.838 537.172 740.938 534.084 743.378 530.12Z" fill="#141C31"/>
<path d="M728.23 196.902C728.23 201.6 726.318 203.67 723.57 207.388C722.416 207.964 722.416 207.964 721.239 208.553C721.576 207.904 721.912 207.255 722.259 206.587C723.639 203.86 723.639 203.86 724.735 200.761C725.9 198.067 725.9 198.067 728.23 196.902Z" fill="#71F2F1"/>
</svg>
